# xmcd CD database file
#
# Track frame offsets:
#	150
#	16125
#	35615
#	49993
#
# Disc length: 849 seconds
#
# Revision: 0
# Processed by: cddbd v1.5.1PL0 Copyright (c) Steve Scherf et al.
# Submitted via: CDex 1.51
#
DISCID=2b034f04
DTITLE=ナチュラル　ハイ - ピアノ弾きの恋
DYEAR=2005
DGENRE=Japanese Pop
TTITLE0=ピアノ弾きの恋
TTITLE1=鼓動の夏
TTITLE2=ピアノ弾きの恋 (piano session KW007)
TTITLE3=鼓動の夏 (piano session KW008)
EXTD=YEAR: 2005
EXTT0=
EXTT1=
EXTT2=
EXTT3=
PLAYORDER=
